<svg width="32" height="32" viewBox="0 0 32 32" fill="none" xmlns="http://www.w3.org/2000/svg">
  <!-- Background circle with gradient -->
  <defs>
    <linearGradient id="bgGradient" x1="0%" y1="0%" x2="100%" y2="100%">
      <stop offset="0%" style="stop-color:#0ea5e9;stop-opacity:1" />
      <stop offset="100%" style="stop-color:#0284c7;stop-opacity:1" />
    </linearGradient>
    <linearGradient id="docGradient" x1="0%" y1="0%" x2="100%" y2="100%">
      <stop offset="0%" style="stop-color:#ffffff;stop-opacity:1" />
      <stop offset="100%" style="stop-color:#f1f5f9;stop-opacity:1" />
    </linearGradient>
  </defs>
  
  <!-- Background -->
  <circle cx="16" cy="16" r="16" fill="url(#bgGradient)"/>
  
  <!-- Document icon -->
  <rect x="8" y="6" width="12" height="16" rx="1" fill="url(#docGradient)" stroke="#0284c7" stroke-width="0.5"/>
  
  <!-- Document lines representing resume content -->
  <rect x="10" y="9" width="8" height="1" rx="0.5" fill="#0284c7" opacity="0.7"/>
  <rect x="10" y="11" width="6" height="1" rx="0.5" fill="#0284c7" opacity="0.5"/>
  <rect x="10" y="13" width="7" height="1" rx="0.5" fill="#0284c7" opacity="0.5"/>
  <rect x="10" y="15" width="5" height="1" rx="0.5" fill="#0284c7" opacity="0.5"/>
  <rect x="10" y="17" width="8" height="1" rx="0.5" fill="#0284c7" opacity="0.5"/>
  <rect x="10" y="19" width="6" height="1" rx="0.5" fill="#0284c7" opacity="0.5"/>
  
  <!-- AI spark/star icon in corner -->
  <g transform="translate(20, 4)">
    <path d="M4 0L4.5 2.5L7 3L4.5 3.5L4 6L3.5 3.5L1 3L3.5 2.5L4 0Z" fill="#fbbf24" stroke="#f59e0b" stroke-width="0.2"/>
  </g>
</svg>
